<?xml version="1.0" standalone="no"?>
<!DOCTYPE svg PUBLIC "-//W3C//DTD SVG 20010904//EN"
 "http://www.w3.org/TR/2001/REC-SVG-20010904/DTD/svg10.dtd">
<svg version="1.0" xmlns="http://www.w3.org/2000/svg"
 width="1301.000000pt" height="1301.000000pt" viewBox="0 0 1301.000000 1301.000000"
 preserveAspectRatio="xMidYMid meet">
<metadata>
Created by potrace 1.14, written by Peter Selinger 2001-2017
</metadata>
<g transform="translate(0.000000,1301.000000) scale(0.100000,-0.100000)"
fill="#000000" stroke="none">
<path d="M6525 12983 c-26 -7 -121 -81 -165 -129 -20 -22 -60 -70 -88 -109
-109 -144 -179 -223 -224 -251 -86 -54 -164 -65 -568 -80 -91 -3 -190 -7 -220
-9 -179 -11 -433 -14 -411 -5 19 8 21 13 11 25 -7 8 -16 15 -21 15 -16 0 -144
62 -162 78 -10 8 -36 49 -58 89 -66 120 -118 152 -156 97 -10 -15 -33 -42 -50
-60 -18 -19 -40 -49 -49 -67 -9 -17 -31 -52 -49 -77 -18 -25 -38 -62 -44 -82
-7 -21 -16 -38 -19 -38 -4 0 -15 -14 -24 -30 -10 -18 -25 -30 -38 -30 -28 0
-304 -91 -420 -139 -87 -35 -214 -98 -380 -189 -36 -19 -92 -56 -125 -82 -62
-49 -83 -61 -175 -104 -68 -32 -267 -207 -276 -243 -4 -15 0 -39 10 -60 l17
-35 -25 4 c-14 3 -29 2 -35 -1 -18 -12 18 -65 59 -89 67 -38 234 -90 319 -98
25 -3 60 -7 76 -10 17 -2 55 -7 85 -10 68 -6 137 -14 170 -20 88 -15 560 -22
675 -9 33 3 80 8 105 10 57 5 222 34 228 40 3 3 30 -19 61 -48 80 -76 189
-123 218 -94 12 12 29 136 22 165 -6 28 -4 32 13 32 10 0 17 4 14 9 -3 5 19
12 49 16 30 3 55 10 55 15 0 4 16 11 35 14 19 4 35 11 35 16 0 6 6 10 14 10 8
0 21 6 28 13 7 6 22 13 33 15 11 2 25 10 31 18 6 8 21 14 34 14 16 0 20 4 16
15 -4 11 1 15 19 15 26 0 42 16 23 23 -7 2 2 7 20 11 22 5 32 12 28 21 -3 9 6
16 26 20 21 5 26 10 18 15 -9 6 -4 13 18 24 17 9 34 21 38 27 4 8 3 9 -4 5
-26 -16 -10 14 24 43 39 35 46 35 148 7 27 -7 67 -12 89 -10 63 5 152 67 185
131 7 12 30 44 52 70 76 92 88 108 108 145 l21 37 -45 -14 c-56 -17 -56 -11
-1 14 111 51 155 59 292 55 107 -4 153 -10 260 -39 262 -69 415 -64 415 11 0
78 -191 213 -361 255 -130 32 -142 52 -86 147 100 172 138 263 152 362 4 24 9
48 11 52 6 9 -15 50 -30 60 -12 8 -20 8 -51 1z"/>
<path d="M7500 12669 c-112 -17 -235 -78 -310 -152 -63 -64 -84 -125 -84 -247
-1 -84 0 -88 83 -295 105 -264 98 -239 116 -402 12 -106 18 -130 42 -175 14
-25 43 -66 64 -90 35 -39 39 -47 34 -83 -25 -188 -23 -317 4 -440 33 -143 42
-161 98 -188 54 -25 77 -46 134 -123 26 -36 56 -62 90 -79 103 -53 178 -150
164 -213 -3 -15 -8 -43 -10 -62 -14 -106 -25 -143 -49 -178 -59 -86 -149 -183
-201 -218 -31 -20 -61 -44 -68 -53 -19 -26 -98 -86 -152 -115 -71 -38 -90 -68
-90 -139 0 -74 -18 -89 -70 -57 -34 21 -34 21 -54 1 -22 -22 -18 -61 7 -61 9
0 31 -14 49 -32 l33 -32 20 21 c17 18 23 20 48 11 42 -16 54 -8 90 63 18 35
40 73 50 85 14 17 103 74 161 103 16 8 22 17 46 73 15 32 23 38 66 47 28 6 52
11 55 11 3 0 3 -12 0 -27 -4 -16 -8 -51 -11 -79 -2 -28 -13 -74 -24 -102 l-20
-50 22 -67 c21 -65 21 -67 3 -98 -59 -102 -79 -149 -81 -194 -4 -94 24 -134
103 -148 38 -6 57 21 48 66 -5 25 -2 29 17 29 27 0 49 38 73 125 9 33 22 79
30 102 7 24 16 57 19 75 3 18 12 61 20 96 8 34 17 77 20 95 42 239 130 414
240 476 80 46 106 49 147 17 19 -14 56 -35 84 -46 27 -12 58 -25 69 -31 36
-16 158 -60 240 -86 99 -32 162 -28 301 18 76 26 108 42 153 81 31 26 76 57
101 68 83 37 93 45 118 93 l25 48 76 -7 c127 -12 144 -11 192 2 25 8 68 26 95
40 158 84 215 106 334 128 14 2 59 12 100 21 41 9 86 18 100 21 14 3 32 7 40
9 8 2 31 7 50 10 60 10 114 40 177 99 81 75 106 127 109 227 2 88 -24 216 -61
296 -58 127 -162 261 -259 331 -28 20 -53 39 -56 43 -14 20 -219 114 -313 144
-121 40 -315 91 -380 100 -37 6 -65 11 -157 31 -175 36 -440 138 -440 168 0 7
12 30 26 51 19 29 44 49 95 74 39 19 87 49 108 67 46 40 87 114 77 139 -5 15
-18 6 -79 -57 -57 -59 -83 -79 -124 -92 -55 -18 -105 -65 -128 -119 -24 -58
-31 -10 -21 153 6 100 5 108 -22 174 -30 74 -38 81 -62 66 -12 -8 -10 -21 14
-96 25 -77 28 -98 23 -168 -3 -45 -9 -95 -13 -113 -6 -32 -6 -32 -27 -12 -11
10 -24 19 -29 19 -4 0 -130 98 -280 218 -453 362 -522 410 -721 497 -168 73
-382 113 -507 94z"/>
<path d="M6869 11680 c-29 -47 -38 -54 -65 -51 -5 0 -20 -8 -33 -20 -15 -14
-30 -19 -45 -15 -17 4 -26 0 -36 -19 -15 -28 -70 -50 -99 -40 -16 5 -23 -1
-36 -32 -19 -46 -32 -55 -67 -47 -25 5 -28 3 -28 -19 0 -28 -24 -54 -35 -37
-3 5 -13 10 -21 10 -12 0 -15 -10 -14 -37 3 -69 2 -74 -22 -71 -20 3 -23 -1
-20 -25 4 -33 -13 -57 -39 -57 -23 0 -23 -12 -5 -65 15 -42 5 -71 -20 -61 -22
8 -27 -13 -10 -39 20 -31 20 -52 1 -63 -14 -7 -14 -13 -1 -50 15 -41 15 -42
-14 -58 -25 -15 -27 -20 -17 -42 10 -21 8 -27 -11 -43 -18 -14 -21 -22 -13
-37 5 -10 6 -24 1 -32 -4 -7 -6 -19 -3 -27 6 -16 -16 -45 -28 -37 -5 3 -8 -14
-7 -37 1 -40 -2 -45 -68 -108 -38 -36 -90 -83 -116 -104 -25 -21 -63 -53 -83
-72 -35 -34 -55 -43 -55 -27 0 4 26 57 57 119 51 99 56 115 45 133 -10 17 -10
26 4 52 15 29 15 33 -1 60 -16 27 -15 30 4 62 24 39 27 56 7 56 -32 0 -38 27
-17 74 14 34 16 46 7 46 -17 0 -47 34 -50 57 -2 10 0 30 5 46 4 15 4 28 -2 28
-5 1 -13 3 -19 4 -5 1 -19 3 -30 4 -15 1 -21 11 -26 41 -6 37 -9 40 -39 40
-27 0 -35 6 -49 34 -9 19 -16 39 -16 45 0 7 -13 9 -39 5 -38 -6 -39 -5 -51 31
-11 35 -14 36 -46 31 -27 -6 -36 -3 -48 16 -8 13 -18 36 -21 51 -7 28 -12 29
-62 10 -7 -3 -20 11 -29 31 -14 29 -22 34 -40 30 -13 -3 -37 1 -55 10 -24 12
-35 13 -46 5 -11 -10 -11 -15 2 -35 20 -31 19 -41 -4 -49 -19 -6 -19 -8 -5
-47 17 -50 17 -48 -1 -48 -22 0 -30 -27 -14 -46 11 -14 9 -19 -11 -34 l-25
-19 21 -23 c37 -41 38 -48 5 -59 -17 -6 -31 -15 -31 -20 0 -4 14 -24 31 -44
26 -29 28 -36 15 -41 -24 -9 -20 -27 14 -59 33 -32 38 -50 15 -59 -22 -8 -18
-30 11 -55 19 -17 23 -26 15 -34 -6 -6 -11 -17 -11 -23 0 -13 54 -44 77 -44
18 0 17 -25 -2 -40 -14 -12 -14 -15 1 -31 9 -10 25 -21 35 -24 26 -9 24 -23
-6 -37 -29 -13 -34 -28 -7 -23 27 5 85 -22 76 -36 -4 -7 -3 -9 4 -5 6 3 13 2
17 -4 4 -6 -8 -16 -25 -23 l-30 -13 33 -31 c66 -60 185 -134 229 -141 34 -6
43 -12 42 -27 -3 -33 -9 -59 -21 -79 -7 -13 -7 -30 -1 -53 10 -39 8 -53 -34
-208 -16 -60 -31 -117 -33 -125 -2 -8 -23 -72 -48 -142 -44 -127 -67 -164
-161 -265 -36 -40 -29 -50 23 -34 29 8 46 22 62 49 58 99 106 162 129 171 14
5 54 12 89 14 35 3 68 10 74 16 8 8 8 11 -1 11 -7 0 -12 4 -12 8 0 4 20 7 45
6 36 -2 44 1 36 10 -8 10 2 17 44 31 30 11 55 22 55 26 0 4 18 10 39 14 25 4
41 13 44 24 3 12 22 22 66 31 38 8 61 18 61 26 0 10 13 14 41 14 32 0 42 4 46
20 5 19 15 25 36 21 5 -1 11 7 14 18 3 14 20 24 54 32 46 12 49 15 49 46 0 35
3 38 63 48 33 5 36 8 27 25 -17 31 -12 39 35 62 48 23 51 28 35 58 -8 15 -5
20 21 29 22 8 29 15 25 26 -3 8 -9 22 -12 30 -6 15 33 38 49 28 11 -7 8 6 -8
31 -14 21 -13 25 19 58 32 32 33 35 15 46 -25 16 -15 35 26 55 36 17 62 52 46
62 -6 3 -51 -10 -100 -29 -50 -18 -91 -30 -91 -25 0 15 -28 10 -62 -11 -35
-21 -68 -26 -68 -11 0 5 -14 -4 -30 -21 -25 -25 -37 -29 -66 -26 -31 4 -39 0
-57 -24 -16 -22 -29 -28 -58 -28 -36 0 -79 -28 -79 -52 0 -4 -16 -8 -35 -8
-29 0 -36 -5 -51 -35 -15 -33 -27 -39 -66 -36 -12 2 -20 -9 -26 -31 -6 -21
-14 -32 -23 -29 -34 9 -42 4 -54 -29 -10 -30 -16 -35 -39 -32 -29 3 -38 -12
-45 -69 -1 -4 -12 -10 -26 -13 -23 -6 -24 -9 -18 -51 4 -35 2 -46 -10 -51 -9
-3 -28 -42 -43 -87 -28 -85 -50 -127 -65 -127 -5 0 -3 10 5 23 24 37 120 381
131 472 8 54 28 83 85 117 56 34 248 211 333 307 15 17 34 31 42 31 9 0 48 16
87 36 57 29 80 35 110 31 39 -5 47 4 29 32 -10 15 15 41 52 54 11 4 21 16 24
27 3 11 13 20 22 20 23 1 48 22 52 45 3 14 19 24 52 34 46 14 48 16 43 45 -7
39 -2 46 54 81 25 15 47 29 49 31 2 2 -7 12 -20 22 l-23 19 28 26 c16 15 23
28 16 32 -18 11 -11 36 15 57 29 22 32 40 10 58 -22 18 -19 26 27 76 l42 46
-22 17 c-20 15 -21 18 -7 38 14 20 14 23 -6 37 l-21 15 22 35 22 36 -21 0
c-25 0 -27 17 -6 47 14 20 14 23 -6 33 -17 9 -20 18 -15 41 3 16 3 29 1 29 -3
0 -19 -22 -36 -50z"/>
<path d="M2316 11193 c-5 -12 -9 -13 -21 -3 -18 15 -35 5 -35 -21 0 -23 -15
-25 -24 -4 -9 25 -33 17 -39 -13 -5 -25 -10 -28 -35 -24 -27 3 -31 1 -37 -27
-6 -27 -9 -30 -37 -24 -29 6 -30 5 -26 -33 3 -37 2 -39 -29 -42 -26 -3 -33 -8
-33 -24 0 -16 -4 -18 -17 -12 -10 5 -49 9 -88 8 -55 0 -81 -6 -120 -26 -34
-17 -60 -24 -82 -21 -18 3 -62 -4 -102 -17 -38 -12 -84 -22 -102 -22 -26 -1
-34 -7 -45 -35 -8 -18 -21 -33 -29 -33 -19 0 -31 -48 -18 -69 30 -48 155 -76
210 -48 40 21 83 26 113 14 14 -5 54 -11 90 -12 36 -1 85 -8 110 -16 l45 -14
-42 -3 c-47 -3 -58 -23 -23 -42 11 -6 20 -8 20 -4 0 3 6 1 14 -5 8 -7 12 -20
9 -30 -4 -17 -7 -17 -56 0 -29 9 -73 20 -99 23 -26 4 -67 10 -90 15 -130 24
-287 -34 -481 -178 -54 -39 -87 -94 -66 -106 5 -4 1 -18 -11 -32 -29 -37 -25
-43 23 -43 36 0 56 9 123 55 43 31 93 62 109 69 87 39 136 56 181 61 27 4 83
15 124 25 164 40 295 41 247 1 -15 -12 -52 -18 -157 -25 -105 -7 -359 -69
-435 -106 -23 -11 -67 -42 -98 -68 -30 -26 -79 -66 -109 -88 -29 -23 -63 -58
-73 -79 -19 -35 -19 -37 -2 -49 12 -10 15 -21 11 -43 -4 -20 -1 -33 10 -42 19
-16 73 -20 111 -9 42 13 75 16 79 9 3 -4 -15 -26 -40 -51 -24 -24 -51 -62 -60
-85 l-15 -41 31 -34 c25 -27 38 -33 73 -33 23 0 57 8 75 17 l32 16 -29 -57
c-16 -32 -31 -70 -35 -85 -13 -58 33 -110 98 -110 36 0 119 27 146 47 14 10
86 45 94 45 2 0 0 -19 -5 -42 -18 -92 -14 -103 41 -126 45 -19 54 -19 83 -7
35 14 112 71 153 112 14 14 28 22 31 19 4 -3 7 -46 9 -94 1 -75 25 -209 41
-235 3 -4 14 0 25 10 11 9 18 13 17 8 -5 -19 12 -55 27 -55 16 0 111 142 138
205 14 34 16 36 11 10 -6 -37 -12 -76 -20 -135 -10 -65 -14 -91 -20 -130 -3
-19 -7 -87 -10 -150 -7 -205 -16 -404 -20 -440 -12 -130 -22 -288 -26 -417 -1
-57 -4 -101 -6 -100 -1 2 -23 46 -49 97 -83 170 -134 226 -314 343 -68 44
-127 99 -210 197 -76 90 -292 301 -372 366 -60 47 -75 43 -34 -10 36 -48 61
-103 94 -211 45 -145 123 -268 248 -390 44 -43 85 -107 129 -205 22 -47 82
-148 135 -225 52 -77 115 -171 138 -210 53 -85 101 -131 146 -139 29 -6 38
-15 67 -69 18 -34 34 -80 36 -102 5 -61 4 -177 -1 -201 -2 -11 -7 -64 -11
-117 l-7 -97 35 0 c20 0 38 3 40 8 3 4 8 34 12 67 3 33 10 78 14 101 4 22 9
73 10 113 2 62 7 81 36 130 28 48 43 62 82 78 75 32 108 38 233 47 125 9 170
29 241 103 78 81 132 177 249 448 24 55 66 135 93 178 27 43 56 97 64 120 8
23 34 62 57 87 24 25 56 67 70 94 24 43 73 173 81 216 7 36 46 182 70 259 14
46 23 86 21 88 -2 2 -34 -29 -72 -68 -38 -40 -102 -104 -143 -143 -41 -39 -83
-82 -95 -96 -27 -33 -251 -256 -296 -295 -50 -44 -148 -115 -157 -115 -4 0
-30 30 -58 67 -76 100 -190 209 -252 239 -49 24 -58 26 -93 15 -33 -10 -43
-20 -66 -66 -37 -76 -46 -78 -40 -8 3 32 8 99 12 148 4 50 8 97 9 105 1 8 6
47 10 85 5 39 10 73 11 78 1 4 2 21 3 37 1 30 21 44 21 15 0 -10 11 -15 38
-15 20 0 45 0 55 -1 29 0 126 128 154 204 23 63 53 180 47 188 -2 4 0 18 5 31
9 21 10 21 11 3 1 -11 3 -27 5 -36 1 -8 6 -42 10 -75 11 -96 48 -162 117 -207
27 -17 28 -16 45 0 10 10 29 64 42 121 13 56 27 102 30 102 3 0 15 -18 25 -40
24 -49 95 -117 132 -126 37 -9 64 23 57 69 -9 57 -43 150 -77 207 -30 51 -32
59 -26 119 7 75 -18 165 -75 266 -42 75 -70 110 -167 208 -43 43 -78 85 -78
92 0 23 60 7 95 -25 17 -15 44 -35 62 -44 42 -21 73 -50 112 -106 17 -25 39
-55 48 -68 9 -13 29 -37 44 -53 15 -17 40 -55 54 -85 14 -30 37 -79 51 -110
20 -43 44 -70 101 -117 87 -72 98 -77 130 -63 31 15 30 61 -3 168 -58 187
-155 322 -319 443 -78 58 -115 79 -160 89 -16 4 -51 17 -78 28 -36 16 -45 24
-37 33 8 10 6 16 -7 24 -17 10 -17 10 0 11 9 0 17 7 17 15 0 22 37 37 72 30
17 -4 62 -20 101 -36 38 -16 110 -39 159 -50 57 -13 105 -32 136 -53 26 -17
70 -44 97 -60 28 -16 67 -45 89 -64 38 -34 92 -62 120 -62 21 0 28 30 13 54
-33 50 -222 237 -263 261 -45 27 -185 71 -254 80 -19 2 -48 7 -65 10 -16 2
-50 7 -75 11 -46 6 -100 25 -100 34 0 3 33 6 73 6 39 1 100 4 135 7 37 3 85
-1 115 -8 29 -8 73 -16 99 -20 58 -7 73 -12 118 -41 40 -26 95 -39 104 -26 11
18 -63 81 -115 96 -34 10 -70 33 -112 71 -71 63 -147 105 -191 105 -17 0 -38
5 -46 10 -12 7 -8 12 18 23 26 11 30 16 20 25 -17 14 -148 31 -172 23 -27 -11
-76 -1 -76 15 0 8 -7 14 -15 14 -11 0 -12 5 -5 26 14 37 13 42 -12 46 -17 2
-22 9 -20 26 3 17 -2 22 -17 22 -12 0 -20 3 -20 8 3 19 -2 33 -11 27 -5 -3
-10 3 -10 15 0 17 -3 19 -19 10 -29 -15 -31 -13 -24 20 5 27 3 30 -19 30 -13
0 -30 -6 -37 -12 -10 -11 -11 -8 -7 14 5 28 -8 47 -19 28 -9 -14 -25 -12 -22
3 1 7 -8 12 -23 12 -14 0 -35 6 -47 12 -17 10 -22 10 -27 -2 -6 -18 -27 -20
-23 -3 3 19 -80 20 -87 1z m-326 -783 c0 -5 -9 -10 -20 -10 -11 0 -20 5 -20
10 0 6 9 10 20 10 11 0 20 -4 20 -10z m60 -61 c0 -15 -31 -44 -80 -74 -25 -15
-48 -33 -52 -39 -6 -8 -8 -8 -8 0 0 15 43 64 57 64 6 0 24 15 40 34 26 31 43
37 43 15z m84 -57 c2 -4 -13 -22 -35 -40 -29 -25 -39 -29 -39 -17 0 17 43 65
59 65 5 0 12 -3 15 -8z m90 -57 c-4 -8 -8 -15 -10 -15 -2 0 -4 7 -4 15 0 8 4
15 10 15 5 0 7 -7 4 -15z m316 -25 c19 -38 48 -116 55 -149 2 -9 11 -51 19
-93 19 -88 25 -180 15 -223 l-7 -30 -1 35 c-6 96 -36 196 -104 340 -25 52 -48
108 -52 124 -5 25 -4 28 14 23 12 -3 24 -1 27 4 9 15 13 11 34 -31z m-154
-1591 c33 -17 93 -63 134 -103 49 -48 86 -76 108 -80 17 -4 32 -10 32 -12 0
-2 -37 -41 -83 -87 -63 -62 -92 -100 -119 -157 -45 -92 -83 -232 -103 -375 -3
-22 -33 -95 -67 -162 -34 -68 -62 -123 -62 -123 -11 0 -13 624 -3 765 4 55 10
134 13 175 10 141 12 151 30 171 24 27 53 24 120 -12z m-255 -901 c1 -24 2
-58 3 -75 1 -18 1 -33 0 -33 -1 0 -12 16 -23 36 -19 31 -20 40 -10 75 16 51
29 50 30 -3z"/>
<path d="M4453 10998 c-25 -29 -61 -103 -69 -146 -8 -41 -21 -41 -29 1 -26
133 -28 137 -50 137 -30 0 -53 -38 -68 -106 -6 -30 -14 -54 -18 -54 -4 0 -12
15 -20 33 -7 17 -21 45 -32 60 -15 22 -22 25 -33 16 -8 -6 -14 -17 -14 -23 0
-6 -9 -19 -20 -29 -17 -14 -26 -42 -21 -69 2 -17 -19 -6 -30 15 -15 28 -48 57
-65 57 -23 0 -25 -18 -4 -70 26 -65 26 -65 -11 -39 -24 17 -35 20 -48 12 -9
-6 -14 -17 -12 -25 8 -32 2 -62 -16 -77 -14 -11 -19 -27 -18 -53 1 -35 0 -37
-27 -31 -22 4 -28 2 -30 -13 0 -11 -2 -26 -3 -34 0 -8 3 -28 8 -45 31 -110 31
-115 11 -111 -11 2 -29 0 -41 -5 -36 -13 -28 -88 20 -199 5 -10 -3 -21 -23
-32 -42 -24 -46 -41 -22 -99 l21 -49 -21 -36 -20 -35 31 -63 c30 -62 31 -65
14 -93 -14 -26 -15 -35 -4 -60 7 -17 26 -44 42 -61 l30 -30 -25 -37 -25 -37
25 -33 c14 -19 31 -36 37 -38 9 -3 9 -8 -1 -19 -7 -8 -15 -33 -18 -55 -5 -38
-3 -42 30 -63 20 -12 36 -22 36 -23 0 -1 -4 -17 -9 -35 -9 -30 -7 -37 25 -71
20 -23 32 -45 29 -54 -7 -17 10 -36 60 -67 l35 -22 -21 -34 c-18 -30 -19 -39
-9 -63 16 -39 54 -73 76 -69 15 2 19 -4 19 -33 0 -20 6 -44 13 -52 18 -21 -5
-70 -27 -62 -32 13 -36 9 -39 -34 -2 -32 -12 -54 -32 -78 -29 -32 -30 -51 -7
-80 7 -10 4 -13 -12 -13 -12 0 -21 -6 -21 -15 0 -8 5 -15 12 -15 6 0 3 -6 -7
-14 -18 -13 -18 -14 4 -26 17 -9 20 -15 12 -23 -15 -15 -14 -30 1 -21 8 5 9 0
4 -17 -12 -42 -14 -74 -6 -90 10 -18 -53 -57 -200 -125 -70 -33 -94 -39 -142
-37 -54 1 -58 0 -64 -23 -5 -20 -12 -24 -47 -24 -25 0 -57 -10 -85 -26 -24
-14 -52 -24 -63 -21 -12 3 -20 -1 -24 -14 -4 -10 -11 -19 -16 -19 -5 0 -9 -5
-9 -11 0 -8 21 -10 65 -7 36 2 65 1 65 -4 0 -4 21 0 48 8 26 9 57 15 69 15 13
0 44 7 70 17 27 10 56 17 66 14 13 -2 17 3 17 21 0 26 39 57 90 72 14 4 32 14
41 22 9 7 28 16 41 18 36 7 95 33 103 45 11 18 36 -10 29 -32 -7 -25 10 -45
46 -53 57 -12 22 -44 -135 -119 -123 -60 -181 -79 -205 -66 -24 13 -47 4 -55
-21 -5 -14 -16 -19 -39 -19 -18 0 -55 -12 -82 -27 -27 -14 -59 -26 -70 -25
-22 2 -61 -43 -46 -51 27 -15 220 8 297 35 17 6 42 12 56 13 34 2 49 13 43 28
-7 19 24 44 76 62 24 9 51 21 60 29 8 7 36 19 62 26 26 7 60 24 75 37 23 22
32 24 73 19 42 -6 56 -2 133 38 47 25 97 52 111 61 23 15 25 15 31 -4 3 -11 1
-29 -4 -40 -9 -16 -6 -23 19 -41 16 -12 46 -22 65 -23 35 -2 35 -3 33 -40 -2
-31 3 -43 22 -58 14 -11 32 -17 41 -15 14 3 15 -1 6 -24 -9 -22 -6 -34 13 -65
22 -35 25 -37 66 -32 42 4 42 4 49 -32 9 -46 22 -71 39 -71 7 0 21 -19 32 -42
16 -36 25 -44 53 -48 29 -4 35 -9 38 -35 5 -38 27 -55 73 -55 32 0 37 -4 49
-36 15 -42 28 -49 75 -36 33 10 35 9 41 -17 3 -15 17 -40 32 -55 20 -22 32
-27 59 -24 19 2 34 1 34 -2 0 -4 19 -26 42 -49 37 -38 45 -42 75 -36 30 5 38
2 69 -29 42 -42 44 -42 85 -17 l31 19 37 -37 c21 -21 55 -45 76 -55 37 -18 39
-18 52 0 7 10 13 26 13 37 0 18 2 18 33 -5 73 -57 108 -76 126 -71 20 5 21 12
2 79 -6 21 -9 39 -8 41 2 1 19 -8 38 -21 52 -35 107 -52 126 -40 27 17 25 27
-17 83 -22 30 -39 56 -36 58 2 2 26 -7 53 -20 67 -35 127 -51 157 -43 37 9 32
29 -14 66 -23 18 -39 34 -37 36 2 2 22 -6 45 -18 46 -22 63 -18 44 12 -11 17
-8 19 45 19 68 0 88 14 54 40 -28 21 -20 45 13 37 29 -7 66 3 66 19 0 8 -7 21
-15 29 -14 14 -13 16 10 22 14 3 25 10 25 14 0 9 -164 90 -180 90 -8 0 -200
188 -200 196 0 1 10 0 23 -3 18 -4 16 0 -13 24 -19 15 -66 58 -105 96 -38 37
-88 80 -111 95 -22 15 -94 83 -160 151 -65 69 -158 165 -206 213 -49 49 -88
93 -88 98 0 5 9 14 20 20 11 6 23 22 26 35 3 14 11 25 18 26 6 0 58 2 116 5
57 2 129 11 159 20 99 29 184 103 197 172 4 20 15 60 25 87 16 42 27 55 67 77
26 15 60 38 75 52 15 14 46 30 70 37 103 27 147 41 152 50 3 4 25 8 49 7 24 0
48 2 54 6 5 3 56 8 113 11 57 4 115 8 129 10 103 18 147 28 159 35 25 14 -211
46 -404 55 -56 3 -112 12 -148 25 -32 11 -91 23 -131 27 -83 6 -144 -14 -193
-64 -26 -26 -34 -28 -108 -29 -44 -1 -101 -4 -127 -8 -27 -3 -67 -8 -90 -12
-24 -3 -52 -7 -63 -9 -11 -2 -24 -4 -30 -5 -5 -1 -1 -5 10 -10 20 -8 236 -4
265 5 8 3 27 1 42 -3 l27 -7 -38 -43 c-22 -24 -44 -55 -49 -70 -54 -147 -65
-164 -127 -195 -64 -32 -260 -45 -310 -20 -11 5 -49 24 -85 42 -111 54 -134
82 -185 222 -18 52 -52 146 -75 209 -23 63 -66 210 -95 325 -57 220 -87 299
-183 470 -55 100 -69 118 -84 109 -4 -3 -14 17 -22 44 -8 27 -26 68 -41 91
-30 49 -126 238 -149 295 -9 22 -19 86 -22 150 -4 61 -8 125 -9 141 -2 17 -4
45 -4 63 -1 38 -10 40 -38 10z"/>
<path d="M11337 10284 c-1 -1 -36 -4 -77 -7 -41 -4 -86 -9 -100 -12 -14 -3
-50 -9 -80 -15 -146 -27 -352 -106 -463 -177 -76 -48 -188 -156 -265 -253 -48
-62 -58 -69 -206 -144 -138 -70 -154 -80 -146 -97 13 -23 21 -20 132 54 110
73 148 89 226 93 243 14 386 51 587 151 143 72 347 219 465 335 53 51 61 63
45 65 -33 4 -116 8 -118 7z"/>
<path d="M10207 9174 c-1 -1 -29 -5 -62 -8 -92 -11 -267 -52 -399 -95 -88 -28
-132 -37 -170 -35 -28 1 -114 5 -191 9 -77 3 -170 8 -207 10 -55 3 -67 1 -73
-13 -12 -32 20 -40 133 -35 217 11 348 6 390 -16 73 -39 371 -144 441 -156 17
-3 59 -12 93 -20 35 -8 86 -17 113 -21 28 -3 52 -8 55 -9 28 -17 442 -24 630
-11 117 8 433 51 495 68 22 5 45 11 52 12 41 7 19 23 -112 83 -133 61 -381
143 -510 169 -143 28 -220 41 -360 60 -45 6 -312 13 -318 8z"/>
<path d="M7987 8854 c-1 -1 -33 -4 -70 -7 -79 -7 -155 -39 -237 -99 -67 -49
-196 -181 -217 -222 -18 -35 -52 -65 -74 -66 -22 0 -78 -61 -87 -96 -13 -46 4
-206 26 -251 11 -21 34 -76 52 -123 18 -47 37 -91 43 -98 15 -19 0 -28 -67
-41 -73 -14 -129 -40 -273 -129 -61 -38 -156 -87 -210 -108 -105 -41 -138 -62
-140 -93 -2 -20 6 -23 80 -35 15 -3 136 -8 270 -11 133 -4 245 -9 248 -11 3
-2 19 -6 35 -8 16 -3 40 -8 54 -11 14 -4 57 -8 96 -10 61 -3 86 1 175 32 126
42 205 51 280 30 58 -16 182 -43 239 -52 19 -3 46 -7 60 -10 91 -18 133 -15
218 14 115 38 156 48 225 55 31 3 83 9 115 12 92 9 123 21 196 74 76 56 79 56
186 65 112 8 203 26 222 42 20 18 73 11 128 -17 54 -28 90 -29 114 -5 20 20
10 45 -19 45 -13 0 -47 11 -77 25 -29 14 -61 25 -70 25 -14 0 -18 8 -18 33 0
17 4 37 8 42 4 6 43 10 87 10 83 -1 108 7 99 30 -8 20 -57 28 -151 26 -45 -1
-84 3 -87 8 -4 5 -1 21 5 35 11 24 63 48 129 60 14 2 43 9 65 14 22 6 56 13
75 16 19 3 46 8 60 11 13 2 40 6 58 7 38 2 67 34 56 62 -8 21 -30 20 -53 -3
-11 -11 -41 -23 -68 -26 -74 -11 -280 -54 -358 -76 -90 -26 -132 -31 -140 -19
-15 25 294 271 363 289 33 9 56 49 40 68 -16 19 -46 16 -53 -7 -3 -11 -40 -41
-81 -67 -41 -27 -132 -86 -202 -132 -172 -114 -186 -120 -269 -109 -38 5 -125
27 -195 50 -102 32 -128 44 -128 59 0 11 -12 22 -34 30 -30 11 -36 19 -47 63
-7 28 -12 54 -11 58 3 13 -44 129 -93 230 -37 75 -64 113 -118 168 -131 133
-137 135 -415 154 -23 1 -43 2 -45 0z"/>
<path d="M11289 8587 c-36 -7 -81 -9 -100 -5 -40 8 -69 2 -69 -17 0 -16 -22
-25 -60 -25 -16 0 -41 -5 -55 -10 -22 -8 -26 -15 -21 -34 5 -21 2 -25 -24 -31
-16 -3 -73 -34 -127 -68 -54 -34 -127 -72 -163 -84 -77 -26 -84 -42 -40 -88
38 -40 35 -60 -12 -69 -40 -7 -95 -54 -103 -89 -11 -41 9 -64 62 -74 49 -9
153 5 193 27 10 6 46 14 80 18 64 9 76 4 80 -33 5 -42 1 -46 -23 -31 -15 10
-27 12 -37 6 -21 -14 -25 -13 -58 14 l-29 25 -36 -26 c-21 -14 -37 -32 -37
-38 0 -14 -109 -71 -125 -66 -5 2 -31 3 -58 3 -41 0 -51 -4 -80 -36 l-32 -36
-44 35 c-24 19 -49 35 -56 35 -7 0 -31 -14 -53 -30 -45 -32 -55 -67 -27 -90
17 -14 19 -43 6 -68 -13 -24 39 -156 63 -160 10 -2 23 1 29 7 16 16 43 13 88
-9 28 -15 44 -18 57 -11 22 12 48 9 64 -7 8 -8 5 -14 -16 -22 -46 -17 -127
-12 -164 10 -45 27 -66 25 -95 -10 -35 -41 -43 -69 -23 -83 14 -11 13 -20 -10
-92 l-25 -80 24 -20 c24 -19 88 -133 69 -121 -5 3 -14 -6 -21 -20 -10 -22 -17
-25 -40 -21 -35 7 -91 -25 -91 -52 0 -11 12 -34 26 -51 15 -17 25 -33 22 -35
-2 -3 -21 -7 -43 -11 -48 -7 -111 -47 -120 -75 -5 -14 0 -30 12 -48 15 -21 17
-32 10 -57 -7 -24 -4 -45 13 -92 28 -77 38 -85 79 -71 27 9 40 8 83 -11 l52
-22 33 36 c38 41 38 41 17 -35 -15 -52 -19 -58 -43 -58 -52 0 -76 -6 -83 -23
-11 -26 -97 -59 -167 -63 -73 -5 -85 -12 -76 -48 10 -38 50 -70 97 -76 56 -8
59 -27 7 -41 -37 -10 -40 -13 -27 -26 8 -8 30 -23 49 -32 26 -13 34 -23 33
-42 -1 -14 -2 -39 -3 -57 -1 -34 -4 -35 -116 -49 -49 -6 -59 -15 -51 -48 9
-36 71 -74 131 -81 163 -17 175 -25 175 -100 0 -37 -4 -55 -12 -56 -7 0 -22
-2 -33 -5 -77 -17 -111 -16 -150 5 -54 28 -126 13 -165 -34 -18 -22 -5 -32
109 -88 66 -33 80 -43 65 -49 -11 -4 -37 -14 -58 -23 -34 -13 -38 -17 -25 -29
8 -8 30 -16 49 -19 103 -14 113 -32 48 -88 -34 -30 -40 -40 -31 -50 18 -19
136 -15 245 7 15 3 43 0 62 -7 28 -10 38 -10 51 1 14 12 18 12 25 0 10 -16 72
-19 130 -6 l35 7 -27 -15 c-19 -12 -25 -21 -21 -37 8 -28 29 -35 59 -18 20 10
29 10 44 1 24 -14 55 -15 79 -2 10 5 31 11 46 14 16 3 33 12 37 21 10 16 48
21 48 5 0 -5 9 -14 21 -20 16 -9 26 -8 44 4 32 21 79 22 71 1 -3 -8 -9 -21
-12 -29 -4 -11 3 -14 31 -12 29 1 40 8 52 29 8 16 21 27 31 26 9 -2 32 1 50 5
25 6 40 3 68 -14 66 -42 66 -40 70 -353 5 -362 6 -355 -11 -387 -8 -16 -35
-38 -61 -50 -39 -19 -44 -25 -32 -36 7 -8 40 -19 73 -25 99 -19 325 3 325 30
0 5 -16 18 -35 30 -42 25 -56 55 -50 113 3 24 7 113 9 198 3 85 8 173 11 195
12 75 59 146 105 160 14 4 51 18 82 32 40 18 65 23 85 18 33 -8 103 -79 103
-104 0 -29 34 -52 81 -55 24 -2 53 -7 65 -10 16 -6 26 1 47 33 16 24 35 41 47
41 27 0 32 13 16 51 -14 35 -12 47 14 87 21 31 41 27 69 -14 13 -19 37 -44 52
-55 34 -24 53 -17 117 44 46 45 51 61 26 88 -24 27 -30 92 -10 108 15 12 21
10 49 -16 53 -50 64 -49 93 8 22 44 28 50 47 44 12 -4 49 -9 81 -12 63 -6 60
-8 40 41 -3 8 6 18 24 25 16 7 35 23 42 35 16 31 10 71 -12 71 -24 0 -34 14
-46 64 -8 32 -7 49 1 62 9 14 7 29 -10 69 l-22 52 133 -7 c117 -6 134 -5 149
10 25 24 21 32 -22 55 -38 19 -62 22 -277 35 -82 5 -145 13 -151 18 -2 2 6 15
17 29 10 14 16 28 13 32 -10 9 -64 7 -107 -5 -31 -9 -50 -7 -95 6 -31 9 -66
20 -79 24 l-23 6 25 38 c14 20 22 37 18 37 -4 0 9 10 28 21 19 12 43 30 54 41
23 25 42 22 201 -24 130 -39 196 -50 217 -37 10 7 10 11 0 21 -22 22 -13 46
33 85 57 47 56 69 -4 102 l-44 24 41 20 c40 18 53 39 33 52 -6 3 -8 15 -5 28
2 12 7 43 10 69 l6 47 -33 5 c-19 3 -52 9 -74 12 -22 4 -83 7 -135 8 l-94 1
-29 68 c-16 38 -26 72 -23 75 4 3 30 -2 60 -11 130 -41 224 5 115 57 -42 20
-44 23 -50 74 -4 29 -12 59 -19 67 -9 11 -5 14 29 13 46 0 115 34 144 74 l20
26 -27 46 c-28 48 -28 48 -113 50 -70 2 -61 16 11 16 l67 0 -2 78 c-1 42 -6
84 -10 94 -13 25 -73 58 -107 58 -28 0 -32 -4 -42 -40 -10 -39 -12 -40 -55
-40 -42 0 -75 18 -75 42 0 7 -17 8 -47 4 -121 -17 -143 -18 -143 -8 0 22 12
41 24 36 7 -3 19 2 26 11 14 17 65 21 75 5 3 -5 13 -10 21 -10 15 0 54 35 54
48 0 5 6 17 14 27 13 17 15 17 43 -15 31 -35 53 -34 53 2 0 18 4 19 35 14 39
-8 69 5 86 36 10 18 6 25 -32 58 l-43 36 13 47 c19 66 12 75 -61 83 -35 5 -69
7 -76 5 -8 -1 -22 5 -32 14 -14 13 -23 14 -39 6 -27 -15 -94 -14 -109 1 -16
16 -16 52 0 42 8 -5 9 -2 5 11 -6 14 -4 16 15 10 58 -17 108 -23 182 -19 158
7 174 25 76 86 -59 37 -73 61 -84 138 -3 20 -58 35 -194 53 -62 8 -116 17
-119 21 -3 3 1 14 10 23 16 19 17 14 -23 121 -8 21 -19 32 -31 32 -10 0 -20
-1 -21 -2 -2 -2 -16 7 -33 18 -55 39 -143 65 -234 69 -56 2 -106 11 -144 25
-56 21 -58 22 -43 44 13 21 12 26 -15 69 -16 26 -35 47 -42 47 -6 1 -66 3
-132 5 -71 2 -147 -1 -186 -8z m-109 -181 c35 -11 41 -16 27 -21 -25 -10 -88
1 -106 20 -14 13 -13 15 9 15 14 0 45 -7 70 -14z m517 -358 c4 -7 8 -37 8 -65
0 -44 -3 -53 -17 -53 -10 0 -21 0 -25 0 -5 0 -8 11 -9 25 -1 33 -4 36 -55 40
-24 2 -46 4 -49 4 -11 2 61 41 92 50 45 13 46 13 55 -1z m-343 -72 c22 -8 33
-16 25 -18 -8 -3 -21 -2 -29 2 -8 3 -21 5 -27 4 -7 -1 -18 -2 -24 -3 -6 -1 -8
-17 -4 -45 7 -42 6 -43 -18 -41 -35 4 -67 23 -62 38 2 6 6 24 9 39 5 22 12 27
44 31 20 2 39 4 42 5 3 1 23 -4 44 -12z m851 -40 l30 -13 -26 -12 c-21 -11
-33 -10 -65 4 -35 15 -37 18 -19 25 28 12 46 11 80 -4z m-588 -102 c35 -2 72
-9 84 -18 12 -8 28 -12 35 -9 17 6 74 -15 74 -28 0 -14 -41 -31 -65 -26 -13 2
-29 0 -36 -4 -7 -4 -21 -2 -32 6 -17 12 -49 10 -72 -4 -16 -11 -100 -4 -126
10 -13 7 -25 12 -26 11 -2 -1 -10 -2 -19 -2 -26 0 -9 25 18 26 31 1 48 11 48
29 0 17 20 25 40 18 8 -4 43 -8 77 -9z m-184 -220 c5 -27 3 -31 -12 -27 -13 3
-17 13 -16 41 1 20 3 42 4 47 3 13 16 -22 24 -61z m-63 11 c0 -40 -17 -53 -76
-57 -40 -3 -41 -2 -35 42 1 11 76 48 99 49 7 1 12 -12 12 -34z m-116 -115 c7
0 18 -11 24 -25 12 -25 11 -25 -41 -26 -28 -1 -73 -1 -99 0 -29 2 -48 -2 -48
-8 0 -19 -35 -12 -49 10 -13 21 -12 22 35 16 37 -4 56 0 93 19 25 14 51 22 59
19 7 -3 19 -5 26 -5z m666 -10 c4 0 10 -9 13 -21 5 -19 10 -20 74 -14 59 6 71
4 93 -13 l24 -19 -22 -7 c-13 -5 -40 -1 -65 8 -51 19 -59 18 -117 -16 -25 -15
-63 -34 -85 -43 -22 -9 -51 -22 -65 -29 -27 -15 -140 -50 -144 -44 -6 9 -23
114 -20 120 3 4 15 3 29 -2 27 -10 39 0 49 42 7 29 46 37 41 8 -3 -22 16 -30
39 -17 12 6 27 12 34 13 8 1 21 9 30 17 19 17 51 26 70 21 8 -2 17 -4 22 -4z
m-850 -197 c0 -7 -4 -13 -10 -13 -5 0 -10 12 -10 28 0 21 2 24 10 12 5 -8 10
-21 10 -27z m-60 -64 c0 -7 -16 -31 -36 -55 -33 -41 -37 -43 -57 -30 -12 8
-44 17 -71 21 -27 3 -58 11 -68 16 -11 6 -22 8 -25 5 -8 -7 -63 22 -63 34 0
14 33 12 103 -6 66 -17 99 -15 162 10 49 19 55 19 55 5z m1538 -24 l47 -13
-55 -2 c-30 0 -74 -3 -97 -6 -34 -5 -44 -2 -49 11 -14 37 43 40 154 10z
m-1074 -161 c4 -14 4 -29 2 -33 -9 -14 -108 -4 -125 13 -14 15 -13 16 8 16 12
0 34 9 47 19 30 24 60 17 68 -15z m561 -4 c9 -15 -27 -70 -46 -70 -28 0 -31
30 -7 56 25 25 43 30 53 14z m490 -45 c36 -8 45 -15 19 -16 -43 -1 -78 -9 -87
-18 -15 -15 -67 -14 -67 2 0 6 12 20 28 29 26 17 44 17 107 3z m-1401 -10 c-4
-8 -11 -15 -16 -15 -10 0 -6 -27 8 -64 5 -13 -1 -16 -29 -16 -35 0 -87 32 -87
53 0 13 84 55 112 56 12 1 15 -4 12 -14z m768 -53 c-2 -21 -11 -42 -19 -49 -9
-7 -16 -29 -17 -50 l-1 -38 -57 -5 c-31 -3 -59 -8 -62 -11 -3 -3 -12 -23 -19
-43 -12 -36 -15 -38 -59 -40 -26 -1 -55 4 -64 11 -10 7 -27 13 -38 13 -37 0
-6 13 41 17 58 6 82 26 90 79 9 54 66 136 104 149 16 6 47 9 67 7 37 -4 38 -4
34 -40z m-1073 -29 c-22 -30 -42 -43 -65 -43 -39 0 -35 17 9 39 54 27 75 28
56 4z m520 -240 c-28 -12 -59 -53 -39 -53 26 0 7 -15 -21 -16 -42 -2 -57 -19
-40 -46 11 -17 11 -22 -1 -29 -25 -16 -44 -9 -81 32 l-37 40 19 27 c46 65 91
89 134 73 29 -11 56 3 62 34 2 11 4 22 5 25 1 3 7 -13 14 -35 12 -39 11 -40
-15 -52z m126 77 c3 -5 -3 -10 -15 -10 -12 0 -18 5 -15 10 3 6 10 10 15 10 5
0 12 -4 15 -10z m729 -86 c43 -16 -14 -82 -86 -99 -55 -14 -60 -56 -11 -101
21 -19 22 -24 9 -36 -19 -20 -111 -1 -94 19 15 19 2 43 -24 43 -21 0 -20 2 7
16 17 8 46 31 65 51 19 19 45 39 57 44 18 7 22 15 19 33 -2 13 -2 27 1 30 8 8
37 8 57 0z m-1584 -139 c0 -2 -16 2 -35 8 -22 6 -31 13 -24 18 10 6 59 -16 59
-26z m1055 -85 c18 -20 18 -21 -1 -40 -12 -12 -41 -21 -81 -25 -61 -6 -63 -6
-63 17 0 27 35 55 44 35 3 -8 11 -4 22 11 20 27 55 28 79 2z m273 -45 c-44
-30 -84 -46 -92 -38 -10 11 16 33 38 33 12 0 31 7 42 15 10 8 26 15 34 15 8 0
-2 -11 -22 -25z m-1008 -95 c0 -17 35 -20 86 -9 42 10 56 9 69 -1 27 -22 5
-32 -66 -26 -73 5 -150 33 -128 47 14 8 39 1 39 -11z m461 -18 c1 -31 6 -106
12 -182 6 -65 5 -71 -6 -45 -22 55 -48 84 -95 106 -25 13 -41 24 -34 27 14 4
16 51 3 71 -17 27 -1 37 59 39 51 1 60 -1 61 -16z m196 -40 l33 -4 -17 -28
c-15 -26 -15 -30 0 -54 16 -24 15 -28 -21 -103 -64 -131 -64 -131 -72 -108 -7
18 -4 183 5 265 2 19 4 39 4 44 1 4 9 5 19 1 9 -5 32 -10 49 -13z m-831 -11
c-6 -9 -46 -22 -46 -15 0 3 10 9 23 14 29 11 29 11 23 1z m-166 -21 c0 -13
-11 -13 -30 0 -12 8 -11 10 8 10 12 0 22 -4 22 -10z m662 -74 c62 -42 107 -90
95 -102 -4 -4 -15 0 -25 9 -10 10 -22 17 -25 17 -15 0 -144 83 -154 99 -9 14
-6 17 19 18 20 0 50 -13 90 -41z m-645 1 c2 -3 -3 -19 -11 -35 -13 -26 -20
-30 -43 -25 -59 12 -70 10 -133 -24 -93 -51 -101 -51 -98 -1 2 41 20 60 40 40
14 -14 39 -4 61 25 20 24 46 30 63 13 7 -7 16 -4 28 9 14 15 24 17 52 11 20
-5 38 -10 41 -13z m1148 -24 l25 -37 -26 -14 c-14 -7 -44 -16 -67 -20 -38 -7
-43 -12 -57 -50 -14 -38 -40 -76 -40 -59 0 10 90 189 102 205 18 21 36 13 63
-25z m147 -47 c10 -7 15 -16 11 -19 -10 -11 -52 -8 -76 5 l-22 12 25 7 c36 10
43 10 62 -5z m-941 -158 c44 -13 45 -14 23 -66 -14 -36 -19 -40 -62 -46 -26
-3 -69 -10 -96 -15 -47 -8 -51 -7 -83 25 -19 19 -30 34 -26 35 4 0 26 3 48 5
24 2 59 17 90 39 57 40 54 39 106 23z m879 -58 c0 -15 -23 -27 -46 -22 -44 8
-23 26 34 28 6 0 12 -2 12 -6z m-272 -179 c2 -6 14 -26 28 -46 31 -46 30 -53
-3 -61 -69 -15 -70 -26 -5 -57 49 -23 52 -31 41 -83 -9 -43 2 -58 40 -52 32 5
53 -18 26 -29 -21 -7 -124 2 -156 15 -21 9 -25 16 -24 49 0 21 -2 56 -7 78 -4
22 -11 79 -14 127 l-7 87 39 -9 c21 -5 40 -14 42 -19z m-221 -193 c-4 -120
-11 -131 -69 -98 -80 44 -83 47 -53 54 40 10 28 38 -23 54 -23 8 -40 18 -37
22 3 5 30 12 61 16 45 5 58 11 66 30 8 16 18 23 34 22 23 -2 24 -4 21 -100z
m936 67 c-6 -17 -21 -19 -43 -5 -12 7 -10 11 10 18 30 11 41 7 33 -13z m-173
-8 c0 -8 9 -22 20 -32 30 -27 26 -49 -6 -41 -38 10 -75 37 -67 50 21 37 53 50
53 23z m-564 -351 c0 -1 -12 -26 -27 -56 l-29 -55 0 63 0 62 28 -6 c15 -4 27
-7 28 -8z"/>
<path d="M955 8052 c-28 -6 -34 -19 -28 -62 5 -33 2 -39 -28 -58 -30 -19 -36
-19 -67 -6 -41 17 -62 6 -62 -33 0 -33 -57 -57 -111 -48 -24 4 -39 3 -39 -3 0
-6 -12 -25 -27 -42 -25 -30 -30 -32 -74 -26 -49 7 -72 -5 -50 -27 38 -38 -18
-73 -98 -62 -57 8 -62 0 -60 -76 3 -68 -6 -84 -71 -118 -33 -18 -60 -36 -60
-40 0 -4 6 -16 14 -26 24 -34 -2 -107 -51 -143 -21 -16 -25 -24 -18 -35 6 -8
19 -26 29 -41 26 -36 23 -80 -8 -121 -14 -19 -26 -37 -26 -41 0 -4 15 -22 34
-39 28 -26 33 -36 30 -65 -2 -18 -11 -44 -20 -58 -15 -23 -15 -25 20 -54 52
-43 68 -127 30 -159 -22 -18 -16 -32 27 -62 48 -33 62 -66 53 -124 -5 -35 -3
-43 10 -43 35 0 51 -71 24 -118 -22 -39 -23 -56 -4 -71 8 -6 16 -22 18 -35 l5
-23 -116 33 c-170 47 -197 50 -211 25 -10 -20 -14 -164 -6 -246 17 -174 80
-359 141 -421 24 -24 25 -24 67 -7 47 18 170 93 205 125 l21 20 44 -26 c91
-54 111 -83 88 -127 -8 -13 -7 -31 1 -59 10 -32 9 -43 -3 -62 -10 -16 -12 -32
-7 -53 7 -23 4 -34 -11 -50 -15 -16 -19 -33 -17 -71 1 -38 -3 -56 -20 -78 -13
-16 -20 -33 -16 -39 13 -22 12 -69 -3 -108 -14 -34 -15 -44 -4 -67 17 -35 13
-70 -11 -104 -21 -29 -24 -48 -10 -48 5 0 15 -15 21 -34 9 -27 8 -46 -3 -88
-14 -53 -13 -55 7 -64 21 -9 32 -42 43 -131 3 -25 10 -43 17 -43 21 0 44 -33
52 -75 4 -22 22 -59 41 -82 19 -23 36 -57 39 -75 5 -28 14 -38 50 -57 24 -13
49 -36 56 -51 7 -16 25 -32 44 -39 18 -6 49 -28 71 -47 21 -19 50 -38 64 -41
14 -3 39 -16 54 -29 16 -13 34 -24 42 -24 22 0 26 -1 78 -21 36 -14 63 -17 96
-13 28 4 49 2 53 -4 6 -11 60 -6 86 8 8 4 35 7 60 5 25 -1 57 4 71 11 14 7 35
11 46 8 12 -3 43 6 71 20 28 14 60 26 71 26 11 0 27 14 40 35 11 19 27 35 34
35 8 0 20 14 27 30 7 17 20 35 30 40 9 5 23 31 30 57 7 26 18 55 24 63 24 32
45 88 56 150 7 36 14 74 16 85 6 28 6 166 0 190 -18 80 -69 168 -121 213 -109
94 -242 87 -261 -15 -5 -27 -2 -39 17 -60 31 -32 69 -48 83 -33 8 8 3 18 -16
34 -37 29 -38 73 -4 82 108 27 220 -145 212 -325 -5 -103 -64 -242 -138 -327
-36 -41 -151 -98 -192 -95 -15 1 -34 -3 -40 -8 -6 -5 -29 -10 -51 -10 -22 1
-57 -4 -78 -9 -149 -39 -330 62 -420 235 -20 40 -37 82 -37 94 0 12 -9 36 -19
53 -11 17 -18 40 -17 51 2 11 -5 36 -14 55 -41 81 -42 290 -4 460 8 36 17 80
20 99 3 18 8 43 10 55 6 26 10 46 19 111 11 73 13 93 21 170 12 133 16 142 67
156 92 25 151 72 208 170 31 54 45 69 63 69 36 0 47 20 35 61 -10 31 -8 43 17
95 26 54 28 68 27 156 -2 74 1 99 12 108 25 21 17 50 -22 83 -101 86 -131 136
-137 228 -3 47 -8 66 -22 76 -71 49 -117 95 -138 137 -14 27 -23 53 -20 57 9
16 -17 49 -49 63 -53 22 -94 63 -153 154 -32 48 -74 106 -96 129 -21 24 -38
52 -38 63 0 24 -2 24 54 0 32 -13 47 -26 52 -44 11 -44 27 -49 75 -21 54 30
79 31 147 1 35 -15 77 -24 120 -25 37 -1 71 -6 77 -11 6 -5 54 -25 105 -45
119 -45 254 -107 340 -155 90 -51 110 -57 110 -31 0 16 6 21 25 21 29 0 75 40
75 65 0 22 -37 56 -54 49 -8 -3 -61 18 -118 46 -205 105 -260 148 -209 165 12
3 21 10 21 14 0 4 -22 31 -50 59 -43 45 -50 58 -51 94 -1 84 -9 123 -26 136
-15 11 -19 9 -31 -13 -16 -31 -31 -25 -89 38 -73 79 -92 142 -62 198 14 26 11
59 -5 59 -8 0 -26 -4 -39 -9 -44 -17 -105 30 -137 105 -16 37 -37 52 -65 46z"/>
<path d="M3630 7639 c-51 -15 -60 -29 -19 -29 65 -1 174 -30 246 -66 81 -41
193 -139 193 -169 0 -11 9 -35 20 -53 l20 -32 -38 15 c-43 18 -103 58 -127 85
-16 17 -19 18 -40 4 -13 -8 -37 -16 -53 -16 -33 -1 -97 34 -106 57 -4 12 -18
14 -56 11 -28 -2 -67 0 -88 5 -20 4 -38 6 -40 4 -13 -12 96 -69 191 -100 159
-51 277 -114 535 -283 125 -82 248 -161 274 -176 25 -15 54 -38 62 -52 16 -23
16 -25 -11 -35 -38 -14 -66 -8 -79 19 -11 23 -12 22 -19 -14 -8 -47 -21 -65
-70 -104 -45 -36 -65 -38 -65 -7 -1 14 -10 2 -29 -38 -16 -33 -40 -71 -54 -84
-27 -24 -28 -24 -39 19 -3 8 -17 -9 -34 -40 -20 -38 -44 -65 -78 -87 -54 -37
-66 -40 -66 -17 0 19 -31 11 -74 -19 -23 -16 -30 -17 -37 -6 -5 8 -9 24 -9 35
0 39 -25 49 -64 25 l-34 -21 -16 25 c-14 21 -20 24 -36 15 -15 -8 -20 -8 -18
1 2 7 -8 18 -22 25 -31 17 -66 -3 -63 -35 2 -12 -1 -21 -5 -22 -4 0 -16 -2
-27 -3 -11 -2 -63 -6 -115 -11 -52 -4 -102 -9 -112 -10 -10 -2 -21 7 -29 26
-10 26 -17 30 -43 27 -21 -2 -34 -10 -41 -26 -5 -12 -17 -21 -25 -20 -22 4
-40 -11 -40 -32 0 -17 -2 -18 -40 -3 -50 20 -64 10 -62 -45 l2 -40 -56 21
c-44 16 -57 18 -64 8 -6 -11 -18 -10 -61 4 -41 13 -67 31 -106 74 -51 54 -53
55 -53 29 0 -16 -5 -28 -12 -28 -22 0 -76 49 -108 99 -34 54 -45 64 -35 31 10
-31 -2 -40 -38 -28 -62 21 -107 58 -129 103 -12 25 -20 46 -17 49 8 7 510 227
573 251 69 26 217 64 268 69 110 11 207 40 223 66 3 4 -21 8 -54 9 -32 0 -69
4 -82 9 -18 7 -32 4 -59 -14 -56 -36 -126 -36 -152 1 -4 6 -37 -6 -80 -28 -69
-35 -108 -46 -108 -29 1 4 13 24 28 46 53 76 205 137 347 139 50 1 105 -2 123
-6 48 -13 40 7 -15 35 -43 20 -61 23 -168 22 -133 -1 -252 -24 -386 -75 -41
-16 -93 -31 -115 -33 -138 -14 -479 -156 -629 -262 -17 -12 -40 -24 -52 -28
-32 -10 -96 -76 -118 -122 -41 -87 -27 -190 35 -249 17 -16 30 -33 30 -38 0
-22 66 -100 120 -142 114 -87 273 -157 460 -199 58 -14 99 -25 92 -25 -9 -1
-12 -11 -8 -34 8 -48 1 -54 -65 -59 -41 -3 -46 -19 -20 -68 12 -22 21 -42 21
-43 0 -10 -179 -12 -279 -4 -63 5 -66 6 -105 54 -23 27 -58 63 -78 79 -24 18
-37 38 -38 53 0 36 -159 178 -276 246 l-32 18 24 54 c24 53 64 197 78 278 l8
40 -47 -45 c-62 -60 -133 -154 -158 -210 -12 -27 -21 -74 -23 -117 -4 -66 -2
-74 24 -105 15 -18 40 -44 56 -57 15 -14 33 -30 40 -36 12 -11 97 -80 130
-105 19 -14 185 -171 230 -217 29 -30 88 -41 196 -38 50 1 89 1 88 0 -2 -1
-43 -12 -93 -25 -73 -18 -116 -23 -232 -22 -78 0 -146 3 -151 6 -8 5 -315 -1
-399 -7 -23 -2 -54 -12 -70 -22 -34 -22 -230 -221 -244 -248 -10 -17 -8 -18
13 -12 44 14 194 93 262 139 68 45 69 46 124 37 76 -12 280 -6 317 10 17 7 35
11 40 10 6 -2 44 -12 85 -23 86 -22 165 -29 198 -17 13 5 22 5 22 -1 0 -6 10
-8 23 -6 12 3 51 8 87 11 36 3 79 8 95 10 17 2 68 7 115 10 47 4 88 11 91 16
5 9 113 -24 179 -55 30 -14 31 -16 8 -11 -108 22 -324 25 -396 5 -68 -18 -211
-41 -279 -45 -71 -4 -108 -13 -258 -62 -118 -38 -139 -49 -131 -70 3 -7 1 -13
-3 -13 -18 0 -104 -257 -116 -346 l-5 -39 40 45 c46 51 170 230 170 245 0 6
15 11 34 12 33 1 279 114 291 133 3 5 22 7 43 4 60 -10 236 -8 257 3 11 6 58
14 105 17 47 4 99 9 115 11 35 5 99 11 209 21 l78 6 -7 -33 c-4 -19 -16 -48
-26 -65 l-19 -32 -53 20 c-38 15 -78 21 -151 21 -91 1 -100 -1 -113 -20 -11
-17 -21 -20 -46 -16 -58 9 -113 -30 -121 -83 -3 -20 -4 -21 -100 -66 -60 -28
-140 -92 -222 -176 -76 -79 -112 -287 -65 -382 20 -40 88 -80 136 -80 91 0
132 85 135 275 l1 70 47 32 c68 46 227 203 242 239 l13 31 73 -5 c60 -4 83 -1
129 18 30 12 73 22 94 22 29 -1 49 7 76 28 24 19 52 30 88 35 28 4 68 10 87
15 19 5 85 11 145 14 61 3 121 8 134 11 14 2 65 7 115 10 50 4 94 9 99 12 4 2
63 6 129 8 105 3 127 1 160 -16 41 -21 88 -25 88 -8 0 8 12 9 38 5 75 -15 92
-15 137 -7 39 7 45 6 45 -8 0 -18 53 -128 69 -144 6 -6 -10 -19 -39 -34 -60
-30 -105 -79 -121 -133 -11 -35 -10 -46 4 -76 60 -124 355 -69 462 86 70 101
24 222 -108 288 -38 19 -47 29 -47 49 0 34 -37 98 -66 114 -13 6 -38 12 -56
11 -21 0 -41 7 -55 20 -12 11 -32 20 -45 20 -53 0 -156 -25 -202 -48 -26 -14
-54 -23 -62 -20 -7 3 -22 23 -33 45 l-21 40 43 5 c54 7 127 13 252 22 55 3
105 10 110 14 6 4 41 7 78 6 38 -2 92 1 120 6 88 14 106 16 109 8 6 -15 251
-170 269 -170 16 0 19 -8 20 -57 1 -132 24 -292 39 -276 11 11 56 163 75 251
19 94 19 141 0 148 -12 5 -13 10 -5 20 13 15 -24 41 -125 88 -172 81 -206 91
-340 101 -33 3 -82 7 -108 10 -32 3 -55 0 -70 -10 -12 -8 -50 -16 -84 -19 -77
-7 -173 -28 -244 -55 -29 -11 -54 -19 -56 -18 -3 3 136 92 146 93 81 9 211 21
316 29 50 4 95 11 100 15 6 4 35 6 65 5 29 -2 77 1 105 7 71 15 110 13 193
-11 81 -23 160 -34 239 -35 42 -1 53 -4 53 -17 0 -28 50 -170 93 -263 31 -67
43 -84 48 -70 3 11 5 27 3 36 -1 10 -4 54 -5 98 -4 164 -34 280 -72 280 -6 0
-18 6 -26 14 -15 14 -100 39 -166 50 -152 26 -192 30 -345 39 -19 2 -39 5 -45
9 -13 8 -85 16 -200 24 -49 3 -94 9 -99 14 -4 4 -5 21 -2 37 6 28 12 31 74 42
135 24 138 26 216 130 40 53 77 103 82 112 12 22 73 96 105 128 41 42 141 174
154 204 15 36 4 112 -26 172 -25 49 -107 135 -188 195 -61 46 -75 49 -66 18
11 -40 122 -262 142 -285 l19 -22 -96 -98 c-105 -108 -160 -184 -160 -220 0
-13 -17 -47 -39 -76 -30 -41 -67 -100 -77 -125 -1 -1 -44 -14 -95 -28 -52 -13
-102 -27 -111 -30 -12 -4 -18 0 -18 11 0 13 -9 15 -45 11 -53 -4 -75 11 -68
47 4 19 0 27 -17 32 -18 6 -10 12 52 39 134 58 259 143 345 235 46 49 103 147
103 177 1 11 9 43 19 73 40 116 4 203 -151 359 -80 80 -332 234 -447 272 -35
12 -91 39 -124 62 -107 73 -299 158 -388 172 -83 13 -126 14 -159 5z m-1167
-953 c9 -22 -15 -46 -48 -47 -80 -4 -86 9 -17 39 58 25 59 25 65 8z"/>
<path d="M8503 7285 c-9 -26 -9 -197 1 -295 5 -47 8 -103 8 -125 0 -25 13 -65
34 -107 30 -61 31 -67 16 -81 -30 -25 -59 -36 -114 -43 -29 -4 -63 -14 -74
-23 -12 -9 -49 -38 -83 -64 l-62 -49 8 49 c4 26 6 79 5 117 -1 59 3 80 33 147
38 87 47 126 33 152 -19 37 -117 7 -149 -47 -32 -55 -70 -106 -79 -106 -10 0
-6 130 5 171 6 23 3 28 -26 38 -17 6 -40 11 -50 11 -17 0 -21 -7 -33 -62 -12
-51 -46 -26 -95 69 -14 28 -26 40 -35 37 -8 -3 -33 -36 -56 -73 -45 -75 -45
-72 6 -176 18 -39 23 -62 20 -102 -2 -33 2 -62 11 -80 8 -15 14 -44 15 -63 0
-59 -49 -274 -71 -309 -7 -10 -21 11 -53 75 l-43 89 -1 145 -1 145 -40 80
c-36 72 -39 86 -36 140 l4 61 -31 2 c-32 2 -78 -17 -98 -41 -18 -21 -21 -73
-8 -120 7 -23 12 -80 11 -127 l0 -85 -27 -3 c-37 -4 -50 29 -49 120 1 66 -26
177 -52 209 -34 44 -94 43 -120 -1 -22 -37 -21 -74 4 -151 26 -83 26 -124 -1
-181 -35 -76 -81 -100 -96 -51 -40 130 -93 232 -133 256 -24 14 -26 14 -52
-14 -22 -24 -36 -29 -76 -30 -26 -1 -51 -1 -55 0 -22 3 -39 -52 -39 -125 0
-60 -5 -86 -19 -109 -11 -17 -34 -61 -53 -98 l-33 -66 -41 42 c-83 88 -99 151
-64 252 20 56 20 61 5 124 -8 36 -17 74 -19 83 -12 54 -48 76 -107 64 -36 -7
-80 -54 -72 -78 2 -9 1 -19 -3 -21 -14 -9 -109 27 -151 56 -21 15 -41 27 -44
27 -4 0 -16 -26 -28 -57 -12 -32 -34 -80 -50 -108 -30 -55 -31 -76 -3 -107 26
-29 61 -45 139 -64 100 -24 127 -46 174 -139 56 -112 68 -169 64 -300 -5 -135
-11 -216 -19 -223 -16 -16 -230 84 -284 133 -59 53 -79 98 -82 178 -2 53 -10
84 -41 152 -36 79 -38 91 -37 175 1 109 -6 123 -81 155 -50 22 -56 22 -67 8
-7 -9 -13 -29 -13 -44 0 -71 -31 -77 -94 -19 -48 45 -62 49 -71 21 -3 -10 -26
-37 -51 -60 l-45 -43 18 -30 c10 -17 51 -53 90 -80 66 -45 76 -57 107 -121 18
-40 44 -108 56 -152 41 -149 61 -200 102 -256 20 -26 20 -27 -1 -125 -37 -182
-45 -287 -27 -380 7 -37 5 -44 -24 -77 -36 -41 -111 -80 -188 -96 -142 -30
-246 -123 -299 -267 -21 -59 -22 -69 -9 -82 10 -11 26 -13 60 -8 38 6 58 19
122 77 42 38 90 73 108 77 63 17 421 -2 519 -28 122 -31 242 -94 313 -165 69
-69 134 -152 134 -171 0 -7 -22 -20 -49 -28 -75 -22 -89 -33 -101 -76 -6 -21
-22 -53 -36 -69 -39 -47 -18 -64 96 -76 36 -4 74 -9 85 -11 11 -3 44 -9 72
-15 69 -13 114 -32 138 -59 37 -41 22 -261 -28 -410 -18 -52 -36 -74 -94 -109
-80 -49 -73 -58 49 -67 204 -14 506 -20 516 -10 3 3 -15 50 -40 103 -55 117
-66 152 -72 218 -7 85 27 139 184 293 155 153 285 238 395 257 17 3 37 8 45
10 8 2 35 7 60 10 25 3 56 8 70 10 14 2 45 7 70 10 107 15 402 91 505 130 33
12 109 50 169 84 60 34 110 61 113 61 2 0 25 14 51 32 52 36 91 76 184 190 35
42 70 79 78 82 8 3 42 8 75 11 66 6 272 35 293 41 36 10 58 158 27 184 -8 7
-43 13 -77 14 -57 1 -63 3 -66 23 -2 12 6 40 17 62 34 66 28 79 -40 91 -38 7
-40 6 -115 -72 -78 -80 -83 -83 -169 -93 -199 -25 -252 -13 -324 74 -46 55
-86 81 -122 81 -20 0 -21 -3 -15 -54 6 -51 4 -56 -20 -75 -15 -12 -32 -21 -38
-21 -6 0 -38 -18 -71 -40 -52 -35 -249 -109 -260 -98 -8 8 114 272 150 326 38
55 114 131 160 157 46 27 201 71 290 82 78 10 375 10 488 0 104 -9 127 -4 127
28 0 24 -130 231 -159 252 -16 12 -141 12 -193 -1 -49 -11 -172 -58 -197 -75
-14 -9 -26 -15 -28 -14 -2 2 -17 10 -33 18 -83 43 -83 146 1 442 39 136 50
149 137 156 89 7 137 23 172 55 49 46 42 118 -13 130 -18 3 -41 6 -52 5 -190
-13 -201 -15 -258 -44 -32 -16 -60 -29 -62 -29 -15 0 -105 248 -105 288 0 28
-42 93 -66 102 -56 22 -74 23 -81 5z m-1432 -672 c23 -58 80 -260 84 -298 8
-64 -8 -74 -37 -23 -55 93 -98 189 -98 216 0 30 27 132 36 132 2 0 9 -12 15
-27z m1475 -140 c-9 -56 -12 -70 -41 -189 -14 -60 -28 -117 -30 -128 -21 -100
-35 -124 -88 -156 -28 -18 -75 -56 -103 -85 -47 -49 -105 -78 -122 -61 -9 9
-9 84 -1 131 4 22 9 54 12 70 3 17 8 37 11 45 3 8 8 33 11 55 6 45 48 115 102
170 43 44 229 185 245 185 7 0 8 -14 4 -37z m-1017 -188 c97 -157 112 -196
114 -285 1 -77 -13 -235 -28 -305 -2 -11 -7 -42 -10 -70 -13 -104 -21 -118
-72 -143 -26 -12 -53 -22 -59 -22 -9 0 -68 173 -80 233 -2 10 -6 27 -9 37 -6
18 -8 34 -20 120 -3 25 -8 59 -10 75 -7 45 -7 270 0 313 29 180 40 211 74 193
9 -5 54 -71 100 -146z m517 86 c-5 -7 -7 -35 -21 -256 -13 -191 -19 -233 -41
-277 -33 -63 -67 -70 -80 -15 -4 18 -7 34 -7 37 1 3 4 50 7 105 12 183 17 219
37 265 28 62 92 159 101 154 5 -3 6 -9 4 -13z m-1156 -76 c34 -17 96 -93 116
-141 28 -68 21 -183 -22 -352 -33 -134 -74 -216 -120 -240 -26 -14 -40 -5 -59
41 -22 54 -75 263 -90 360 -3 18 -9 57 -14 87 -5 30 -9 88 -8 127 2 83 15 103
82 126 44 16 73 14 115 -8z m-551 -568 c74 -37 140 -67 146 -67 21 0 74 -58
99 -108 13 -26 40 -93 59 -148 20 -54 48 -128 62 -164 45 -108 35 -190 -22
-190 -51 0 -103 46 -273 240 -41 47 -90 101 -108 120 -35 36 -77 115 -85 160
-3 14 -8 41 -11 60 -10 52 -15 171 -7 168 3 -2 66 -33 140 -71z m1609 -136
c72 -38 97 -177 56 -304 -37 -115 -135 -268 -231 -361 -91 -88 -187 -125 -263
-101 -20 6 -22 12 -17 54 3 26 23 90 43 142 66 163 233 479 294 552 29 36 73
42 118 18z m-704 -103 c9 -50 17 -207 20 -372 4 -246 -53 -516 -109 -516 -35
0 -94 71 -124 150 -95 244 -79 386 68 615 45 69 117 155 131 155 4 0 10 -15
14 -32z m1617 -185 c35 -35 -124 -153 -355 -263 -184 -88 -198 -94 -283 -124
-109 -37 -102 -15 46 139 159 165 221 207 366 246 77 21 206 22 226 2z"/>
<path d="M8900 4799 c-120 -41 -297 -108 -347 -130 -23 -11 -48 -19 -55 -19
-8 0 -18 -4 -23 -8 -6 -5 -46 -24 -90 -42 -193 -82 -344 -209 -388 -326 -49
-129 -88 -271 -83 -304 13 -92 92 -236 188 -341 90 -98 269 -197 463 -253 260
-75 344 -90 540 -92 178 -2 265 6 440 41 83 16 102 26 90 45 -4 7 -25 9 -63 4
-31 -4 -73 -8 -92 -10 -19 -2 -134 -6 -255 -9 -220 -4 -220 -4 -330 26 -117
31 -122 33 -145 42 -8 3 -68 25 -132 48 -128 45 -154 63 -125 84 10 7 15 19
12 27 -9 22 16 38 76 48 80 14 96 18 117 29 16 8 26 6 46 -10 24 -19 26 -19
27 -2 1 10 1 21 0 26 -1 10 17 9 39 -3 14 -8 20 -4 29 18 10 23 27 33 109 61
100 35 137 58 287 180 97 78 150 103 398 185 105 35 278 99 382 141 158 64
658 241 967 342 l77 25 -17 24 c-12 17 -27 23 -52 24 -33 0 -397 -119 -1055
-345 -572 -197 -680 -216 -940 -164 -77 16 -180 31 -230 35 -49 3 -108 8 -130
10 -148 15 -234 15 -290 3 -33 -7 -69 -12 -79 -11 -11 1 -22 -2 -25 -7 -3 -5
-19 -11 -36 -12 -26 -3 -32 1 -47 29 -13 27 -14 40 -5 65 14 44 122 148 214
208 88 57 332 182 518 264 72 32 137 64 145 71 25 24 -35 16 -130 -17z"/>
<path d="M3607 4725 c-1 -2 -45 -5 -97 -9 -194 -13 -332 -53 -371 -109 -15
-21 -66 -141 -75 -176 -57 -228 -70 -309 -67 -416 2 -70 23 -127 114 -310 43
-88 71 -149 62 -135 -77 107 -127 164 -258 296 -216 217 -415 380 -490 399
-114 29 -183 8 -251 -77 -37 -46 -75 -68 -117 -68 -34 0 -46 -6 -81 -43 -56
-58 -73 -80 -127 -168 -108 -174 -238 -473 -275 -634 -3 -11 -8 -31 -12 -45
-3 -14 -6 -61 -7 -106 0 -73 3 -87 37 -155 56 -110 137 -188 256 -247 154 -75
310 -80 621 -17 110 22 240 29 291 15 15 -4 -18 -9 -85 -13 -60 -3 -121 -9
-135 -12 -14 -3 -45 -8 -70 -11 -97 -13 -437 -106 -520 -141 -8 -3 -17 -7 -20
-7 -54 -13 -138 -58 -166 -89 -31 -34 -34 -43 -33 -91 1 -29 -1 -58 -5 -64
-12 -19 -17 -54 -18 -110 0 -42 5 -61 28 -95 16 -23 36 -58 45 -77 20 -43 61
-81 116 -110 37 -19 44 -28 58 -78 9 -31 24 -65 33 -76 43 -48 136 -95 217
-109 76 -14 94 -20 150 -46 88 -41 131 -83 177 -174 41 -83 127 -185 156 -186
174 -5 208 0 299 45 163 79 257 244 324 569 21 104 39 165 49 165 3 0 5 -48 6
-108 1 -125 7 -179 34 -285 115 -445 311 -682 562 -679 127 2 253 55 362 155
298 270 410 394 551 608 64 97 97 121 157 117 61 -4 62 10 4 55 -24 18 -79 65
-122 104 -198 179 -387 305 -494 328 -16 4 -32 10 -35 14 -9 15 431 140 585
167 25 4 47 8 50 9 3 1 39 7 80 14 41 7 86 15 100 17 14 3 78 7 142 9 214 9
315 74 335 217 10 64 9 321 0 362 -3 16 -11 53 -17 82 -27 128 -100 278 -202
416 -35 45 -77 110 -94 143 -31 60 -31 60 -75 59 -31 -1 -63 -12 -108 -38 -63
-36 -107 -53 -321 -121 -140 -45 -258 -99 -351 -161 -80 -53 -210 -176 -259
-246 -18 -27 -35 -47 -36 -45 -5 5 42 210 71 307 13 47 52 171 87 275 34 105
62 192 63 195 0 3 15 48 32 100 81 248 93 324 59 388 -22 42 -83 86 -149 108
-29 9 -72 29 -97 44 -57 36 -103 47 -215 54 -49 3 -112 12 -140 21 -27 9 -93
18 -145 21 -52 3 -112 7 -133 8 -20 1 -38 2 -40 1z"/>
<path d="M11841 4319 c-25 -16 -61 -31 -80 -35 -150 -25 -255 -97 -313 -214
-37 -75 -47 -121 -54 -239 -6 -121 -15 -176 -36 -218 -22 -43 -45 -60 -33 -23
58 181 -14 404 -172 531 -11 9 -56 38 -99 64 -44 27 -98 64 -121 83 -24 19
-43 32 -43 29 0 -2 12 -30 26 -61 24 -52 25 -62 18 -158 -6 -102 -6 -104 30
-198 54 -141 76 -170 211 -286 57 -48 98 -67 126 -59 24 8 25 10 -12 -76 -102
-243 -99 -236 -92 -162 3 33 3 72 0 85 -10 37 -87 112 -147 143 -49 25 -60 27
-120 20 -101 -12 -143 -9 -180 10 l-35 18 27 -34 c15 -19 40 -54 54 -79 54
-89 133 -188 168 -210 50 -30 123 -47 174 -40 23 4 42 3 42 0 0 -4 -13 -26
-29 -51 -15 -24 -54 -84 -85 -132 -61 -94 -196 -359 -196 -384 0 -8 5 -13 11
-11 13 4 28 30 72 128 19 41 45 98 57 125 13 28 60 106 103 175 44 69 88 141
98 160 16 32 18 33 19 11 0 -35 34 -100 76 -150 41 -47 96 -78 199 -111 74
-23 158 -52 188 -65 28 -12 21 27 -12 69 -24 29 -49 109 -43 137 0 3 -14 32
-32 65 -27 49 -42 64 -92 91 -32 18 -83 38 -111 44 -46 11 -58 10 -92 -6 -22
-9 -42 -24 -46 -33 -4 -11 -9 -12 -16 -5 -8 8 3 45 36 130 50 124 65 152 65
115 0 -16 18 -31 70 -62 39 -23 88 -48 108 -56 20 -8 46 -19 56 -25 29 -16
226 -22 278 -9 23 7 106 43 184 81 90 44 152 69 175 69 l34 0 -40 23 c-22 13
-65 42 -95 65 -30 23 -88 59 -129 79 -98 49 -152 53 -267 20 -49 -14 -123 -33
-164 -42 -77 -19 -130 -46 -164 -84 -31 -35 -49 -27 -30 13 13 26 43 50 133
104 64 38 134 79 157 90 23 12 48 32 57 46 9 13 25 27 36 31 27 8 99 156 112
231 7 43 7 78 0 117 -9 49 -8 63 9 102 11 25 18 45 17 44 -1 0 -22 -14 -46
-30z"/>
<path d="M7145 3686 c-25 -11 -117 -68 -160 -100 -9 -6 -39 -1 -88 16 l-76 26
-104 -22 c-100 -22 -108 -26 -204 -96 -97 -71 -181 -108 -304 -135 -15 -4 -32
-12 -37 -18 -9 -12 -38 -110 -34 -115 7 -8 -89 -160 -131 -206 -27 -30 -34
-71 -32 -189 2 -118 3 -115 -70 -195 -50 -56 -54 -69 -36 -117 18 -50 14 -61
-75 -200 -28 -44 -77 -129 -109 -188 -60 -113 -62 -124 -41 -216 5 -24 -17
-75 -55 -123 -14 -17 -23 -45 -26 -80 -6 -82 -12 -101 -28 -94 -27 10 -43 -23
-60 -121 -20 -120 -39 -170 -60 -153 -16 14 -52 -5 -61 -33 -3 -10 -23 -29
-44 -42 -40 -25 -45 -37 -55 -130 -10 -87 -17 -109 -46 -152 -36 -52 -65 -73
-93 -67 -42 8 -75 -15 -90 -65 l-13 -46 -52 0 c-47 0 -55 -4 -95 -43 -65 -64
-93 -135 -79 -204 8 -42 70 -97 165 -147 91 -47 97 -54 153 -156 39 -71 74
-127 97 -156 36 -44 110 -52 238 -25 99 21 115 20 215 -9 47 -13 91 -22 98
-19 8 3 21 20 30 39 14 30 25 36 99 59 183 55 207 59 244 41 38 -18 56 -12
142 47 23 16 53 31 65 33 12 2 40 6 62 10 64 9 71 13 101 60 29 47 37 51 153
80 90 23 161 71 210 143 22 33 60 77 84 98 43 37 372 251 440 285 20 11 68 19
132 22 130 7 136 14 129 130 -12 202 -12 239 -2 267 13 39 88 105 252 223 119
86 136 95 185 99 89 9 94 23 94 258 0 233 -1 245 -26 281 -16 24 -38 40 -74
52 -30 11 -53 26 -56 36 -2 10 15 78 38 152 44 139 46 170 16 204 -32 36 -37
54 -30 113 4 31 8 87 8 124 1 82 -1 84 -147 126 -141 41 -146 45 -177 149 -92
308 -113 358 -156 367 -17 3 -57 -3 -95 -15 -37 -11 -77 -18 -89 -15 -13 3
-40 30 -61 58 -80 112 -106 126 -179 94z"/>
<path d="M9727 3184 c-1 -1 -21 -4 -44 -8 -154 -21 -321 -93 -467 -203 -102
-77 -276 -247 -361 -354 -33 -40 -63 -76 -66 -79 -28 -23 -170 -260 -184 -309
-7 -22 -5 -23 21 -17 16 4 36 14 45 22 19 17 48 19 119 9 30 -5 76 -9 102 -9
26 -1 44 -4 40 -7 -11 -10 -183 -47 -241 -53 -83 -8 -162 -26 -200 -44 -62
-30 -48 -38 61 -35 l103 3 -70 -16 c-79 -17 -157 -52 -163 -73 -4 -10 1 -12
19 -7 44 12 166 19 195 11 26 -7 21 -10 -56 -34 -102 -33 -165 -64 -174 -87
-5 -13 -2 -15 21 -9 46 11 186 35 208 35 16 0 12 -5 -15 -22 -19 -13 -41 -28
-48 -35 -7 -7 -18 -13 -23 -13 -5 0 -45 -14 -88 -30 -114 -44 -183 -114 -83
-84 26 8 61 17 77 20 17 2 37 7 45 9 29 8 120 16 120 11 0 -3 -21 -20 -47 -37
-40 -28 -44 -33 -27 -40 19 -7 19 -7 -1 -14 -179 -67 -270 -118 -295 -164 -11
-22 -11 -23 6 -16 93 37 300 92 310 82 3 -3 -6 -21 -20 -40 -27 -35 -25 -47 5
-47 29 0 30 -26 1 -40 -52 -23 -188 -118 -243 -168 -51 -47 -75 -83 -62 -95 2
-3 32 12 66 32 34 21 78 44 97 53 131 60 171 78 175 78 9 0 -18 -62 -45 -102
-29 -42 -32 -60 -8 -41 16 12 155 49 220 59 26 3 59 3 73 0 l25 -6 -39 -59
c-67 -99 -465 -591 -501 -621 -22 -17 -384 -460 -415 -505 -88 -133 14 -53
282 220 640 653 816 825 830 811 8 -7 6 -164 -2 -221 -3 -22 -8 -53 -10 -68
l-4 -28 37 29 c20 16 50 37 66 47 l28 19 -7 -35 c-11 -50 -79 -249 -98 -286
-27 -51 -1 -51 46 0 40 42 131 209 158 290 15 43 35 48 51 12 13 -30 22 -31
40 -7 33 46 40 37 33 -39 -4 -41 -13 -110 -21 -154 -17 -101 -17 -98 4 -86 11
6 31 37 46 70 23 52 36 98 71 246 l8 30 11 -27 12 -27 24 47 25 46 3 -80 c1
-45 -1 -106 -6 -137 -7 -45 -6 -57 4 -57 8 0 20 13 28 28 17 33 56 180 56 211
0 12 6 21 14 21 8 0 19 14 25 30 19 55 24 31 17 -86 -6 -113 -5 -116 13 -100
25 22 58 149 60 231 1 26 2 28 17 14 11 -12 15 -38 15 -106 0 -49 -3 -97 -7
-106 -5 -13 -2 -16 11 -11 22 9 34 41 56 144 12 59 18 75 19 53 2 -18 4 -37 5
-43 1 -5 3 -33 4 -61 1 -36 5 -49 14 -47 21 7 36 94 41 239 5 145 15 184 66
249 l19 25 -15 -50 c-9 -27 -19 -61 -23 -75 -4 -13 -4 -47 1 -75 20 -122 20
-124 -1 -161 -22 -37 -28 -84 -11 -84 19 0 232 99 284 132 122 78 245 198 368
359 292 383 359 803 182 1139 -117 222 -378 442 -659 557 -63 26 -210 53 -300
56 -53 2 -96 2 -98 1z m-617 -907 c0 -9 -23 -18 -62 -25 -34 -6 -63 -10 -65
-8 -3 3 102 43 120 45 4 1 7 -5 7 -12z m924 -782 c-4 -8 -8 -15 -10 -15 -2 0
-4 7 -4 15 0 8 4 15 10 15 5 0 7 -7 4 -15z"/>
</g>
</svg>
